<svg xmlns="http://www.w3.org/2000/svg" width="125" height="110" viewBox="0 0 125 110">
  <g fill="none">
    <path fill="#E8FAFF" d="M105.773 35.455a24.576 24.576 0 00-6.898-12.579 24.212 24.212 0 00-12.7-6.512 24.088 24.088 0 00-14.133 1.793 24.362 24.362 0 00-10.708 9.482 18.521 18.521 0 00-9.204.49A18.659 18.659 0 0044.278 33a18.901 18.901 0 00-4.59 8.067 19.029 19.029 0 00-.212 9.3c.7 3.07 2.151 5.913 4.22 8.27a18.68 18.68 0 007.623 5.23 18.524 18.524 0 009.172.915 18.596 18.596 0 008.49-3.622 24.014 24.014 0 0014.902 3.766 24.075 24.075 0 0014.143-6.052 14.97 14.97 0 006.357 4.998 14.824 14.824 0 008.005.942 14.884 14.884 0 007.325-3.39 15.1 15.1 0 004.518-6.735c.866-2.62 1.004-5.43.397-8.123a15.133 15.133 0 00-3.839-7.151 14.921 14.921 0 00-6.958-4.101 14.82 14.82 0 00-8.058.14z"/>
    <path fill="#CDF3FF" d="M29.991 17.072a21.528 21.528 0 016.096-11.038A21.45 21.45 0 0147.31.32 21.423 21.423 0 0159.8 1.893a21.482 21.482 0 019.463 8.321c2.704-.54 5.5-.392 8.134.43a16.508 16.508 0 016.939 4.274 16.56 16.56 0 014.056 7.08 16.586 16.586 0 01-3.542 15.419 16.512 16.512 0 01-6.736 4.588 16.48 16.48 0 01-15.609-2.375 21.338 21.338 0 01-25.668-2.006 13.214 13.214 0 01-5.618 4.386 13.183 13.183 0 01-13.547-2.148 13.242 13.242 0 01-3.992-5.91 13.269 13.269 0 013.041-13.404 13.183 13.183 0 0113.27-3.475z"/>
    <path fill="#FFF" d="M3.966 18.797c.29-.006.576.064.83.203L38.13 37.183a1.666 1.666 0 01.87 1.483v19l-3.147 15.837 18.95-16.583a3.334 3.334 0 014.394 0l24.47 21.413H34.893L29 108H4a1.669 1.669 0 01-1.667-1.667v-85.86a1.667 1.667 0 011.633-1.676z"/>
    <path fill="#176997" d="M57 54.594c1.088 0 2.142.367 2.992 1.037l.192.16 24.47 21.413a1.5 1.5 0 01-1.855 2.353l-.12-.095-6.18-5.407L76.5 105c0 .153-.023.3-.065.438.947.388 1.883.806 2.808 1.254a1.5 1.5 0 01-1.308 2.7 46.628 46.628 0 00-21.422-4.642 46.536 46.536 0 00-21.354 4.642 1.5 1.5 0 11-1.307-2.7 49.601 49.601 0 013.652-1.591L37.5 105V74.055l-6.179 5.407a1.5 1.5 0 01-2.086-2.15l.11-.108 24.47-21.412A4.834 4.834 0 0157 54.594zM32.333 16.167a1.5 1.5 0 011.493 1.356l.007.144V33.13l5.014 2.735a3.166 3.166 0 011.648 2.592l.005.21v19a1.5 1.5 0 01-2.993.144l-.007-.145V38.65c0-.031-.007-.061-.023-.087l-.028-.036-.037-.027-5.66-3.087a1.497 1.497 0 01-.258-.14L4.08 20.317a.168.168 0 00-.082-.02.17.17 0 00-.143.085l-.016.04-.006.051v15.694h11.834a1.5 1.5 0 01.144 2.993l-.144.007H3.833v7H19a1.5 1.5 0 01.144 2.993l-.144.007H3.833v7h21.834a1.5 1.5 0 01.144 2.993l-.144.007H3.833v47.166a.167.167 0 00.124.161L4 106.5h10.166V95.667a3.167 3.167 0 012.958-3.16l.21-.007H24a3.166 3.166 0 013.16 2.958l.007.209V106.5H29a1.5 1.5 0 01.144 2.993L29 109.5H4a3.17 3.17 0 01-3.16-2.958l-.007-.209V20.481a3.169 3.169 0 014.47-2.903l.212.105 25.318 13.811V17.667a1.5 1.5 0 011.5-1.5zM24 95.5h-6.667a.167.167 0 00-.16.123l-.006.044V106.5h7V95.667a.167.167 0 00-.124-.161L24 95.5zm23.167-7.166a3.167 3.167 0 012.957-3.16l.21-.007h13.333a3.167 3.167 0 013.16 2.958l.006.209v14.09c0 .058-.003.115-.01.172a49.358 49.358 0 016.677 1.746V71.43L58.207 58.048a1.834 1.834 0 00-2.287-.103l-.13.104L40.5 71.429v32.616a49.556 49.556 0 016.668-1.613V88.334zm16.5-.167H50.333a.167.167 0 00-.16.123l-.006.044v13.683a48.936 48.936 0 016.346-.267c2.453-.056 4.9.07 7.321.375V88.334a.167.167 0 00-.124-.161l-.043-.006zm-6.667-23a6.5 6.5 0 110 13 6.5 6.5 0 010-13zm0 3a3.5 3.5 0 100 7 3.5 3.5 0 000-7z"/>
  </g>
</svg>
